<?xml version="1.0" encoding="utf-8"?>
<!-- Generator: Adobe Illustrator 24.1.3, SVG Export Plug-In . SVG Version: 6.00 Build 0)  -->
<svg version="1.1" id="TenneT_x5F_Basic_logo_x5F_no_payoff_x5F_PMS_x5F_x10"
     xmlns="http://www.w3.org/2000/svg" x="0px" y="0px" viewBox="0 0 311.81 62.36"
     style="enable-background:new 0 0 311.81 62.36;" xml:space="preserve">
<style type="text/css">
	.st0{fill:#FFFFFF;}
	.st1{fill:#004B8D;}
	.st2{fill:#569BBE;}
	.st3{fill:#6CB33F;}
</style>
<g>
	<path class="st0" d="M86.87,20.01c3.89,14.52-10.64,31.03-32.45,36.87C32.6,62.72,11.77,55.69,7.88,41.17
		C3.99,26.65,18.51,10.15,40.33,4.3C62.14-1.54,82.97,5.49,86.87,20.01z"/>
	<path class="st1" d="M86.91,29.61H43.94L60.08,17.5L10.3,25.36l-0.01-0.01c5.06-9.18,16.05-17.3,30.03-21.05
		c21.81-5.84,42.65,1.19,46.54,15.71C87.71,23.16,87.68,26.4,86.91,29.61L86.91,29.61z"/>
	<path class="st2" d="M31.81,58.41c-12.09-1.78-21.46-7.99-23.94-17.24C6.86,37.38,7.1,33.45,8.4,29.61l0.01,0h23.4L31.81,58.41z"/>
	<path class="st3" d="M39.18,53.38c0.43-0.33,1.21-0.66,1.73-0.75l27.55-4.79c0.88-0.15,2.07-0.68,2.66-1.17
		c0.59-0.49,1.07-0.9,1.07-0.9H35.88l9.9-7.46c0.42-0.32,1.2-0.66,1.73-0.74l37.31-6.08c0.54-0.09,1.19-0.3,1.73-0.56v0.01
		c-3.41,11.09-15.7,21.54-32.13,25.94c-7.71,2.07-15.29,2.52-22.05,1.61L39.18,53.38z"/>
	<g>
		<path class="st1" d="M272.05,12.66c2.04,1.11,3.66,2.87,4.58,5.01h10.7V47.2h8.27V17.67h11.83v-5.01H272.05z"/>
		<path class="st1" d="M183.16,12.63h-11.68c-4.16,0.03-6.16,2-6.16,6.05V47.2h8.05V19.35c0.04-1.18,0.46-1.61,1.64-1.65h6.86
			c5,0.04,6.78,2.47,6.83,7.54V47.2h8.05V24.51C196.78,14.49,189.97,12.67,183.16,12.63z"/>
		<path class="st1" d="M221.09,12.63h-11.68c-4.16,0.03-6.16,2-6.16,6.05V47.2h8.05V19.35c0.04-1.18,0.46-1.61,1.64-1.65h6.86
			c5.01,0.04,6.79,2.47,6.84,7.54V47.2h8.05V24.51C234.71,14.49,227.9,12.67,221.09,12.63z"/>
		<path class="st1" d="M134.78,34.04c-0.04-0.49-0.06-0.81-0.08-1.37h18.21c0.34,0,1.9,0.05,2.93-0.21
			c1.85-0.47,3.85-1.94,3.86-6.48c0-5.5-1.86-8.8-4.81-10.89c-6.01-4.26-19.1-4.27-24.49,1.32c-5.39,5.61-4.78,18.81-1.93,24.5
			c0.8,1.6,2.41,3.56,4.91,4.85c1.82,1.03,4.5,1.42,7.09,1.42c1.09,0,18.14,0,18.14,0v-5.02h-16.87
			C136.28,42.13,135.04,38.09,134.78,34.04z M134.82,25.14c0.43-4.13,2.36-7.91,8.35-7.91c6.15,0,8.46,3.19,8.47,7.75
			c-0.09,2.16-0.41,2.65-1.73,2.68h-15.22C134.72,26.28,134.82,25.14,134.82,25.14z"/>
		<path class="st1" d="M248.7,34.04c-0.04-0.49-0.06-0.81-0.08-1.37h18.21c0.34,0,1.91,0.05,2.93-0.21
			c1.86-0.47,3.85-1.94,3.86-6.48c0-5.5-1.86-8.8-4.81-10.89c-6.01-4.26-19.11-4.27-24.49,1.32c-5.39,5.61-4.77,18.81-1.93,24.5
			c0.8,1.6,2.41,3.56,4.9,4.85c1.83,1.03,4.5,1.42,7.09,1.42c1.09,0,18.14,0,18.14,0v-5.02h-16.87
			C250.2,42.13,248.96,38.09,248.7,34.04z M248.74,25.14c0.44-4.13,2.36-7.91,8.35-7.91c6.15,0,8.46,3.19,8.47,7.75
			c-0.08,2.16-0.4,2.65-1.73,2.68h-15.22C248.64,26.28,248.74,25.14,248.74,25.14z"/>
		<path class="st1" d="M93.9,17.63c-0.96-2.34-1.32-3.34-2.57-5.01h37.41c-2.04,1.11-3.66,2.88-4.59,5.01h-10.72V47.2h-8.28V17.63
			H93.9z"/>
	</g>
</g>
</svg>
